<?xml version="1.0" encoding="UTF-8"?><svg id="Camada_2" xmlns="http://www.w3.org/2000/svg" viewBox="0 0 270.43 217.7"><g id="Camada_1-2"><path d="m238.76,90.03c8.37,0,16.74,0,25.11,0,4.34,0,6.65,2.49,6.55,6.81-.11,4.96-.12,9.91-.06,14.87.04,3.42-2.08,5.98-5.52,6.13-3.2.14-6.41.05-9.62.05-4,0-8,0-11.99-.05-1.15-.02-1.53.33-1.45,1.51.11,1.57.01,3.16-.02,4.75-.02.76.13,1.24,1.07,1.29,4.31.2,7.09,4.14,6.91,7.99-.14,2.95-.07,5.92-.04,8.87.04,3.98-3.67,7.42-6.81,7.29-.88-.04-1.16.42-1.14,1.24.02.62,0,1.26-.17,1.85-.44,1.58-1.73,2.43-3.27,2.26-1.23-.14-2.44-1.47-2.59-2.84-.08-.76.09-1.73-.32-2.2-.38-.44-1.43-.23-2.1-.51-1.06-.44-2.02-1.11-3.06-1.57-.55-.24-1.27-.51-1.79-.36-9.08,2.69-18.15,5.44-27.22,8.18-.95.29-1.89.68-2.86.86-1.06.2-1.32.8-1.32,1.75.07,16.04.13,32.08.17,48.11,0,3.25-.67,6.27-3.17,8.64-2.1,1.98-4.63,2.75-7.41,2.76-5.54.01-11.07-.06-16.61-.11-4.56-.04-9.2-4.39-9.06-9.35.09-3.04-.03-6.08.03-9.12.09-4.56-2.41-7.1-7.01-7.13-2.28-.02-4.28.52-5.82,2.3-1.05,1.21-1.26,2.65-1.26,4.19.01,3.42.04,6.83-.09,10.25-.18,4.55-3.99,8.62-8.52,8.77-6.15.21-12.32.25-18.47.03-5.26-.19-8.91-4.18-9.04-9.46-.09-3.54,0-7.08,0-10.62,0-2-.58-3.91-2.44-4.72-1.58-.69-3.49-1.09-5.19-.93-4.38.41-8.73,1.16-13.08,1.85-7.96,1.27-15.91,2.66-23.88,3.89-5.9.91-11.88,1.19-17.81.67-3.82-.33-7.66-1.14-11.34-2.23-7.15-2.1-13.54-5.73-19.12-10.69-9.24-8.22-15.19-18.35-17.19-30.6-1.55-9.48-.89-18.76,3.36-27.57,1.76-3.65,4.16-6.81,7.23-9.46.37-.32,1.09-.53,1.53-.4.31.09.58.84.6,1.3.05.91-.05,1.83-.15,2.74-.1.88.18,1.26,1.12,1.35,4.64.43,9.27.92,13.91,1.39,1.9.19,3.81.34,5.71.58,2.3.29,3.09,2.02,1.75,3.89-3.69,5.14-7.4,10.27-11.18,15.34-.77,1.04-.63,1.6.29,2.34,2.24,1.81,2.25,1.86,4.23-.27,3.87-4.19,7.76-8.36,11.53-12.65,2.45-2.79,4.04-1.39,4.82,1.17,1.8,5.93,3.72,11.82,5.49,17.75.36,1.22.9,1.57,2.05,1.2.43-.14.89-.2,1.33-.32.67-.17.9-.53.79-1.28-1-6.5-1.94-13-2.94-19.5-.42-2.71.87-3.85,3.44-2.84,5.92,2.33,11.81,4.72,17.73,7.04.38.15,1.13.05,1.36-.22.53-.63.88-1.42.21-2.26-1.07-1.33-2.1-2.69-3.15-4.03-3.14-3.99-6.29-7.98-9.43-11.97-.39-.49-.76-.99-1.08-1.53-.98-1.65-.33-3.1,1.56-3.39,4.15-.63,8.31-1.21,12.47-1.8,2.55-.36,5.11-.68,7.67-1.03.49-.07.99-.17,1.45-.35,1.43-.56,1.78-1.58.91-2.85-4.05-5.95-8.13-11.89-12.19-17.83-.19-.27-.4-.53-.58-.81-1.08-1.7-.41-3.3,1.6-3.57,1.93-.26,3.89-.35,5.84-.5,4.77-.35,9.55-.68,14.32-1.03.54-.04,1.08-.11,1.61-.22,1.48-.32,2.12-1.73,1.37-3.04-3.38-5.93-6.77-11.84-10.15-17.77-.45-.79-.94-1.59-1.25-2.44-.52-1.38.3-2.63,1.77-2.78.74-.08,1.5-.04,2.25-.03,6.45.04,12.91.08,19.36.13,1.46.01,2.15-1.05,1.66-2.57-1.82-5.66-3.64-11.32-5.47-16.97-.52-1.62-1.08-3.23-1.65-4.84-.31-.85-.59-1.65.15-2.44.76-.81,1.6-1.02,2.7-.77,5.84,1.31,11.7,2.55,17.55,3.82,1.26.27,2.51.56,3.77.84,1.5.33,2.6-.32,2.79-1.84.24-1.9.3-3.82.41-5.73.31-5.4.6-10.81.91-16.21.02-.41.08-.83.18-1.23.4-1.58,1.88-2.22,3.23-1.33,5.53,3.63,11.1,7.21,16.53,10.99,3.24,2.26,4.42,1.87,5.83-1.55,2.11-5.11,4.5-10.1,6.78-15.14.17-.38.36-.76.6-1.09.97-1.35,2.27-1.46,3.31-.16,1.04,1.3,1.95,2.7,2.92,4.05,2.92,4.05,5.86,8.09,8.76,12.16.63.88,1.37,1.13,2.44,1.14,6.82.04,13.68-.2,20.47.34,7.35.58,13.84,3.74,19.42,8.6,6.54,5.7,10.95,12.73,12.52,21.32,1.03,5.64,1.4,11.38-.03,16.99-1.49,5.87-5.03,10.32-10.49,13.14-3.69,1.91-7.44,3.72-11.01,5.85-6.22,3.71-11.44,8.46-14.42,15.26-1.27,2.88-1.94,5.91-1.92,9.08.01,1.83-.09,3.66-.14,5.5-.06,2.14,0,2.23,2.05,2.94,4.91,1.7,9.82,3.37,14.72,5.1,4.9,1.73,9.77,3.52,14.67,5.24.38.13.98.06,1.3-.17,1.44-1.03,2.86-2.02,4.74-1.98.82.02,1.05-.48,1.06-1.2.01-1.75.02-3.5.08-5.25.04-.97-.4-1.17-1.28-1.16-6.95.03-13.91.03-20.86.02-1.88,0-3.63-.33-4.98-1.84-.99-1.11-1.53-2.38-1.53-3.85,0-5.42-.02-10.83.01-16.25.02-3.54,2.5-5.88,6.2-5.89,8.5-.02,16.99,0,25.49,0h0ZM12.58,118.16c-.44.1-.61.1-.75.17-.18.09-.35.22-.5.36-2.68,2.6-4.85,5.58-6.48,8.95-2.25,4.68-3.27,9.65-3.66,14.8-.61,7.95.55,15.62,3.58,22.97,4.14,10.03,10.84,17.93,19.96,23.81,8.07,5.2,16.91,7.92,26.48,8.1,9.14.17,18.19-.77,27.17-2.45,5.47-1.03,10.93-2.12,16.42-3.06,3.11-.53,6.26-.91,9.4-1.16,1.79-.14,3.55.35,5.07,1.44,1.87,1.35,2.46,3.3,2.47,5.47.03,3.5-.02,7-.02,10.5,0,4.48,3.78,8.47,8.13,8.5,6,.04,11.99-.01,17.99,0,1.79,0,3.3-.67,4.71-1.71,2.49-1.85,3.44-4.34,3.38-7.38-.07-3.29-.01-6.58.04-9.87.03-1.74.71-3.31,2-4.44,2.79-2.44,6.06-2.94,9.44-1.55,3.13,1.28,4.59,3.8,4.51,7.22-.07,3.08-.05,6.16-.08,9.25-.05,4.52,3.71,8.46,8.22,8.49,5.91.04,11.83.01,17.74-.03.82,0,1.68-.11,2.45-.38,3.95-1.4,6.01-4.62,5.89-9.01-.05-1.92-.1-3.83-.1-5.75.03-29,.06-57.99.14-86.99,0-3.23-.03-6.53.54-9.68,1.44-7.93,6.22-13.75,12.53-18.43,4.53-3.36,9.6-5.78,14.59-8.35,6.65-3.43,10.54-8.9,10.87-16.55.12-2.83.02-5.66-.02-8.5-.04-3.42-.92-6.69-2.11-9.84-2.77-7.32-7.29-13.32-13.86-17.68-5.64-3.75-11.84-5.94-18.61-6.04-10.24-.15-20.49-.08-30.74-.02-6.03.03-11.94,1.04-17.67,2.86-7.72,2.44-14.5,6.56-20.57,11.94-5.03,4.46-9.98,9-13.99,14.4-6.62,8.92-11.91,18.66-16.56,28.71-4.74,10.26-9.3,20.61-13.71,31.02-3.48,8.23-6.69,16.58-9.87,24.93-2.59,6.8-6.75,12.29-12.8,16.31-7.1,4.72-14.89,6.5-23.31,5.14-8.96-1.45-16.15-5.9-21.58-13.19-4.35-5.83-6.79-12.36-6.95-19.67-.03-1.14.12-2.29.2-3.61Zm184.66-.56c0,1.34,0,2.53,0,3.72-.05,10.75-.09,21.49-.15,32.24-.01,2.32.02,2.34,2.3,1.66,6.48-1.96,12.97-3.91,19.45-5.86,3.29-.99,6.58-1.98,9.67-2.9-.28-2.21-.66-4.32-.79-6.45-.14-2.16-.12-4.33,0-6.49.07-1.26.34-2.55.77-3.74.33-.91.22-1.18-.69-1.49-5.35-1.83-10.66-3.73-16-5.6-4.81-1.69-9.63-3.36-14.56-5.07Zm51.3,19.97s.04,0,.06,0c0-1.71-.01-3.41,0-5.12.02-3.22-2.59-6.03-5.83-6.12-2.75-.07-5.5-.06-8.24,0-2.85.06-5.48,2.64-5.58,5.51-.12,3.58-.18,7.16-.15,10.74.02,3.2,2.49,5.86,5.69,6.01,2.99.14,5.99.1,8.98-.06,2.64-.14,5.07-2.95,5.07-5.59,0-1.79,0-3.58,0-5.37Zm-2.27-33.65c-.11-1.06-.12-2.04-.33-2.96-.62-2.65-2.09-4.6-4.85-5.32-4.2-1.11-7.68.82-8.6,5.05-.42,1.91-.44,4-.17,5.93.51,3.58,3.23,5.77,6.72,5.83,3.46.06,6.05-2.01,6.84-5.54.23-1.01.27-2.06.39-2.99Zm11.93-8.27c-.18-.09-.36-.18-.54-.27-3.48,4.37-6.97,8.75-10.63,13.35.68.04,1.04.08,1.39.08,1.54,0,3.08.02,4.62-.03.85-.03,1.24.26,1.19,1.14-.04.78,0,1.55,0,2.34h3.72c0-.84.03-1.58,0-2.33-.04-.75.1-1.25,1.01-1.11,1.28.2,1.03-.75,1.06-1.45.03-.73.25-1.61-1-1.51-.65.05-1.13-.08-1.1-.94.07-2.41.08-4.83.13-7.24.02-.68.11-1.35.17-2.03Zm-29.91.06c-.1-.04-.21-.08-.31-.12-3.46,4.31-6.92,8.63-10.55,13.15.64.04.99.08,1.34.08,1.54,0,3.08.02,4.61-.05.88-.04,1.21.26,1.14,1.13-.06.77-.01,1.55-.01,2.36h3.8v-3.37q1.92-.19,1.96-1.2.06-1.66-1.98-1.98v-10Zm12.47,22.18c-1.2,0-2.27-.05-3.33.04-.27.02-.7.5-.7.77-.05,1.95-.02,3.91.04,5.86,0,.27.36.72.58.74.91.08,1.83.09,2.74-.01.25-.03.64-.54.65-.83.06-2.07.03-4.15.03-6.57Zm-2.08,31.7c-.72.21-2.12-.58-2.02,1.3.09,1.81.97,3.17,2.14,3.1,1.19-.07,2.02-1.23,2.01-2.83-.01-1.58-.03-1.59-2.13-1.57Z"/><path d="m191.34,135.15c0,3.08.02,6.16,0,9.24-.04,5.88-2.36,10.91-5.92,15.43-4.13,5.25-9.62,8.14-16.17,9.25-13.85,2.36-26.49-7.45-29.14-20.41-.61-2.99-.69-6.12-.7-9.18-.02-5.32-.1-10.68.4-15.96,1.03-10.89,10.06-20.19,21.14-22.19,12.83-2.31,24.98,5.17,29.29,17.97.86,2.56,1.13,5.19,1.16,7.86.03,2.66,0,5.33,0,7.99-.02,0-.04,0-.06,0Zm-25.82-9.65s0-.09,0-.13c-7.36,0-14.72,0-22.09,0-.46,0-.94-.06-1.36.07-.29.09-.67.44-.69.7-.01.24.37.67.64.72.73.14,1.48.17,2.23.17,13.53,0,27.06,0,40.58,0,1.25,0,2.5.05,3.74-.05.31-.02.57-.52.86-.8-.28-.23-.53-.51-.84-.67-.2-.1-.49-.03-.74-.03-7.45,0-14.89,0-22.34,0Zm-.35,17.82c-7.32,0-14.64-.01-21.97.02-.59,0-1.66-.52-1.71.54-.06,1.2,1.1.78,1.81.9.04,0,.08,0,.12,0,14.31,0,28.62,0,42.93-.01.62,0,1.26.06,1.86-.06.31-.06.56-.46.84-.71-.31-.23-.59-.5-.93-.66-.2-.1-.49-.02-.74-.02-7.41,0-14.81,0-22.22,0Zm-15.86-35.2c.02.22.04.45.06.67.82.11,1.64.3,2.46.3,9.06.02,18.12.01,27.19.02.62,0,1.25.08,1.87.02.26-.03.67-.3.71-.51.05-.25-.18-.65-.4-.81-.24-.17-.62-.2-.94-.2-9.77,0-19.54,0-29.31.03-.54,0-1.08.33-1.63.5Zm31.92,53.19c-.48,0-.97,0-1.47,0-9.49,0-18.97-.01-28.45.02-.6,0-1.74.43-1.73.52.16,1.06,1.09.78,1.77.78,3.99,0,7.99-.05,11.98-.05,5.49,0,10.98.04,16.47.06.81,0,1.68.06,1.43-1.33Z"/><path d="m85.13,151.81c4.1-.02,6.37,3.63,4.57,6.73-2.25,3.88-5.68,6.33-9.97,7.58-1.87.54-3.43.02-4.67-1.49-1.27-1.55-1.31-3.27-.44-4.91.71-1.34,1.64-2.62,2.73-3.68,2.3-2.23,5.01-3.82,7.78-4.23Z"/><path d="m32.47,176.38c-3.11-.31-6.77-1.48-9.76-4.29-1.59-1.49-2.08-3.29-1.36-5.33.72-2.05,2.53-2.89,4.44-2.84,4.42.12,8.41,1.54,11.42,4.97,1.27,1.45,1.65,3.2.77,5-.93,1.89-2.6,2.58-5.51,2.49Z"/><path d="m63.91,167.13c1.22.31,2.49.45,3.6.95,3.45,1.56,3.87,5.58.85,7.86-2.27,1.71-4.97,2.32-7.71,2.59-1.62.16-3.35.13-4.92-.24-3.27-.78-4.47-4.64-2.14-7.07,1.19-1.24,2.83-2.2,4.44-2.82,1.83-.7,3.87-.86,5.88-1.27Z"/><path d="m162.92,45.13c-1.96.13-3.43-.63-4.38-2.32-.95-1.69-.66-3.37.44-4.81,3.07-3.96,7.24-5.76,12.18-5.63,1.87.05,3.28,1.17,3.89,3.03.61,1.85.11,3.48-1.24,4.8-3.03,2.96-6.71,4.52-10.9,4.93Z"/><path d="m135.23,70.48c-.26.95-.37,1.98-.8,2.85-1.53,3.16-3.75,5.81-6.66,7.78-2.75,1.87-6.08.86-7.04-2.14-.31-.96-.34-2.2-.02-3.16,1.23-3.74,3.48-6.8,6.84-8.92,2.17-1.37,4.18-1.29,5.91.09,1.21.97,1.62,1.84,1.77,3.49Z"/><path d="m148.09,45.02c3.31,0,5.48,2.89,4.43,5.9-1.25,3.59-7.62,8.17-11.37,8.47-2.66.21-5.71-2.65-4.36-6.02,1.26-3.12,3.65-5.24,6.5-6.8,1.46-.8,3.11-1.26,4.67-1.87.04.11.08.21.13.32Z"/><path d="m98.57,102.5c-.21,1.32-.4,2.64-.65,3.95-1.29,6.69-2.6,13.38-3.91,20.07-.85,4.36-1.72,8.73-2.59,13.09-.64,3.22-.35,6.19,2.01,8.73,3.61,3.9,9.28,4.16,13.27.45,6.8-6.32,13.54-12.71,20.31-19.06,2.1-1.96,4.23-3.89,6.35-5.83.27-.25.61-.42.91-.63.1.1.19.2.29.3-.46.55-.86,1.15-1.37,1.63-5.41,5.12-10.83,10.23-16.26,15.33-3.22,3.02-6.51,5.96-9.67,9.04-4.79,4.68-12.88,3.29-16.11-2.82-.93-1.76-1.21-3.66-.91-5.57.52-3.32,1.21-6.62,1.84-9.93,1.23-6.41,2.48-12.81,3.71-19.22.52-2.74.99-5.48,1.54-8.21.11-.53.51-1,.77-1.49.16.06.31.11.47.17Z"/><path d="m60.94,161.44c-2.15-.15-3.13-1.72-2.17-3.59.22-.44.5-.88.83-1.24,2.73-2.92,6.02-4.93,9.94-5.84,1.16-.27,2.13.03,2.86,1,.78,1.04.3,2-.3,2.86-.5.71-1.06,1.45-1.76,1.91-2.22,1.45-4.49,2.82-6.8,4.12-.77.43-1.73.53-2.6.78Z"/><path d="m46.47,164.78c-2.23-.41-4.48-.81-6.71-1.23-.36-.07-.71-.22-1.05-.39-1.12-.56-2.09-1.31-2.21-2.64-.08-.88,1.39-2.13,2.77-2.38,3.8-.69,7.53-.41,11.15.99.38.15.85.33,1.05.64.47.73,1.2,1.62,1.08,2.32-.12.7-1.03,1.54-1.77,1.81-1.34.49-2.82.6-4.31.89Z"/><path d="m128.5,54.71c-.15.47-.29,1.31-.67,2.03-1.6,3.05-3.64,5.76-6.49,7.77-.47.33-1,.6-1.53.82-.86.37-1.72.39-2.43-.31-.7-.69-1-1.5-.67-2.49,1.17-3.51,3.41-6.25,6.19-8.57.84-.7,1.89-1.23,2.93-1.58,1.36-.46,2.63.58,2.66,2.33Z"/><path d="m145.71,37.96c-1.17.02-2.02-.48-2.59-1.47-.55-.96.03-1.72.53-2.39.57-.75,1.25-1.47,2.02-2.01,2.6-1.83,5.39-3.3,8.57-3.85.63-.11,1.34-.11,1.95.06,1.57.43,2.14,2.02,1.21,3.34-.47.67-1.04,1.38-1.73,1.77-2.55,1.45-5.16,2.82-7.78,4.13-.64.32-1.45.29-2.19.43Z"/><path d="m216.55,58.41c-1.27,2.04-2.53,4.1-3.83,6.13-.46.72-1.01,1.39-1.57,2.15-2.48-1.65-2.85-4.65-4.81-6.72-.97,1.7-1.83,3.21-2.7,4.71-1.37,2.36-2.03,2.37-3.39.02-.65-1.11-1.24-2.26-1.89-3.37-.26-.45-.58-.86-.98-1.47-.94,1.61-1.76,3.04-2.61,4.46-1.71,2.86-2.15,2.83-3.85-.07-1.16-1.98-2.41-3.9-3.61-5.83h29.23Zm-9.24.94c1.05,1.89,2,3.58,2.94,5.29.56,1.02.92,1.04,1.52.02.86-1.47,1.68-2.95,2.5-4.44.13-.23.15-.52.24-.87h-7.2Zm-10.65.02h-7.46c1.1,1.95,2.11,3.79,3.19,5.59.1.16.85.2.93.06,1.11-1.78,2.15-3.61,3.34-5.65Zm1.61-.04c1.08,1.96,2.05,3.78,3.09,5.55.1.17.9.22.99.08,1.15-1.8,2.22-3.64,3.41-5.63h-7.49Z"/><path d="m137.99,39.94c-.23.46-.47,1.24-.94,1.85-1.62,2.08-3.51,3.88-5.91,5.06-.92.45-1.92.79-2.72-.18-.72-.88-.45-1.84.11-2.66,1.8-2.59,3.87-4.89,6.98-5.96,1.24-.42,2.52.42,2.48,1.9Z"/><path d="m216.28,46.11c-.01,2.14-1.87,3.89-4.06,3.84-2.03-.05-3.92-1.94-3.94-3.93-.02-2.06,2.02-4.03,4.15-3.99,2.15.04,3.87,1.87,3.86,4.07Z"/><path d="m195.51,45.98c0,2.11-1.75,3.92-3.85,3.97-2.11.05-4.07-1.81-4.09-3.89-.02-2.14,1.82-4.03,3.93-4.03,2.16,0,4,1.81,4.01,3.95Z"/><path d="m242.4,104.33c-.23.84-.39,2.11-.93,3.18-.92,1.81-3.61,1.85-4.61.09-1.27-2.24-1.2-4.63-.21-6.95.5-1.16,1.49-1.74,2.83-1.56,1.31.17,2.14.9,2.45,2.14.22.88.27,1.8.46,3.11Z"/><path d="m225.98,101.82c-.96,1.35-1.92,2.69-2.88,4.04.93-.1,1.86-.19,2.79-.29.03-1.25.06-2.5.08-3.75Z"/><path d="m217.58,105.48c-.96,1.35-1.92,2.69-2.88,4.04.93-.1,1.86-.19,2.79-.29.03-1.25.06-2.5.08-3.75Z"/><path d="m255.79,101.69c-.96,1.35-1.92,2.69-2.88,4.04.93-.1,1.86-.19,2.79-.29.03-1.25.06-2.5.08-3.75Z"/></g></svg>