<?xml version="1.0" encoding="UTF-8"?><svg id="Camada_2" xmlns="http://www.w3.org/2000/svg" viewBox="0 0 118.15 111.31"><defs><style>.cls-1{fill:#fff;}</style></defs><g id="Camada_1-2"><path class="cls-1" d="m114.07,39.94v61.64c0,3.74-2.18,6.97-5.34,8.49t-.02.01c-.14.08-.28.16-.42.23-4.65,2.32-10.31.44-12.64-4.21L58.48,31.83c-.74-1.47-2.84-1.47-3.58,0L17.84,105.91c-2.33,4.65-7.99,6.53-12.64,4.21-4.65-2.33-6.53-7.99-4.21-12.64L47.17,5.21c1.97-3.93,6.32-5.89,10.42-4.99,3.56-.12,7.03,1.8,8.73,5.19l27.42,54.78c.37.75,1.5.48,1.5-.35v-20.16c0-2.6,1.05-4.96,2.76-6.66,1.99-1.99,4.88-3.11,8.01-2.66,4.69.66,8.06,4.87,8.06,9.6Z"/><ellipse class="cls-1" cx="104.32" cy="14.51" rx="13.86" ry="13.79" transform="translate(20.3 78.02) rotate(-45)"/></g></svg>