<svg width="36" height="36" viewBox="0 0 36 36" fill="none" xmlns="http://www.w3.org/2000/svg">
<mask id="path-1-inside-1_401_32" fill="white">
<path d="M26.0987 1.43094C25.7859 0.491645 26.7805 -0.410198 27.5617 0.19795C32.1449 3.76586 35.0933 9.33503 35.0933 15.5932C35.0933 26.3628 26.3628 35.0932 15.5933 35.0932C9.33505 35.0932 3.76589 32.1449 0.197976 27.5616C-0.410172 26.7804 0.491673 25.7858 1.43097 26.0987C3.36782 26.7437 5.43966 27.0932 7.59326 27.0932C18.3628 27.0932 27.0933 18.3628 27.0933 7.59324C27.0933 5.43963 26.7437 3.3678 26.0987 1.43094Z"/>
</mask>
<path d="M0.197976 27.5616L-1.3802 28.7902L0.197976 27.5616ZM26.0987 1.43094L24.2011 2.06288L26.0987 1.43094ZM27.5617 0.19795L26.3331 1.77613C30.4506 4.98147 33.0933 9.97808 33.0933 15.5932H35.0933H37.0933C37.0933 8.69198 33.8392 2.55025 28.7902 -1.38023L27.5617 0.19795ZM35.0933 15.5932H33.0933C33.0933 25.2582 25.2582 33.0932 15.5933 33.0932V35.0932V37.0932C27.4674 37.0932 37.0933 27.4674 37.0933 15.5932H35.0933ZM15.5933 35.0932V33.0932C9.97811 33.0932 4.9815 30.4506 1.77615 26.3331L0.197976 27.5616L-1.3802 28.7902C2.55027 33.8392 8.692 37.0932 15.5933 37.0932V35.0932ZM1.43097 26.0987L0.799031 27.9962C2.9369 28.7082 5.22199 29.0932 7.59326 29.0932V27.0932V25.0932C5.65733 25.0932 3.79874 24.7792 2.06291 24.2011L1.43097 26.0987ZM7.59326 27.0932V29.0932C19.4674 29.0932 29.0933 19.4674 29.0933 7.59324H27.0933H25.0933C25.0933 17.2582 17.2582 25.0932 7.59326 25.0932V27.0932ZM27.0933 7.59324H29.0933C29.0933 5.22196 28.7082 2.93688 27.9962 0.799004L26.0987 1.43094L24.2011 2.06288C24.7792 3.79872 25.0933 5.6573 25.0933 7.59324H27.0933ZM0.197976 27.5616L1.77615 26.3331C1.91428 26.5105 2.01884 26.7846 1.99722 27.0974C1.97733 27.385 1.85927 27.5988 1.74405 27.7315C1.52663 27.9818 1.16017 28.1165 0.799031 27.9962L1.43097 26.0987L2.06291 24.2011C0.762472 23.768 -0.52456 24.2436 -1.27569 25.1083C-2.07155 26.0245 -2.35851 27.5335 -1.3802 28.7902L0.197976 27.5616ZM27.5617 0.19795L28.7902 -1.38023C27.5335 -2.35853 26.0245 -2.07157 25.1083 -1.27572C24.2436 -0.524589 23.7681 0.762444 24.2011 2.06288L26.0987 1.43094L27.9962 0.799004C28.1165 1.16015 27.9818 1.52661 27.7315 1.74403C27.5989 1.85925 27.385 1.97731 27.0975 1.99719C26.7846 2.01882 26.5105 1.91426 26.3331 1.77613L27.5617 0.19795Z" fill="white" mask="url(#path-1-inside-1_401_32)"/>
</svg>
